<svg xmlns="http://www.w3.org/2000/svg" xmlns:xlink="http://www.w3.org/1999/xlink" viewBox="0 0 1250 550" style="fill: black">
                            <path fill-rule="evenodd"
                                d="M1228.322,454.756 C1218.894,470.182 1212.605,478.979 1186.304,485.642 C1171.546,489.390 
                                1149.924,481.965 1142.767,475.232 C1136.423,469.242 1130.217,463.116 1126.209,453.140 
                                C1117.416,436.579 1121.418,412.992 1130.85,400.315 C1139.152,388.740 1145.712,381.174 
                                1167.719,375.934 C1168.499,375.500 1168.499,375.500 1168.771,376.60 C1183.170,372.427 
                                1205.211,380.134 1212.585,387.129 C1220.692,395.219 1225.969,399.367 1231.317,416.500 
                                C1234.976,428.833 1233.772,441.166 1228.322,454.756 ZM1220.674,234.499 C1219.665,256.166
                                1222.0,277.833 1218.982,300.735 C1211.373,319.878 1207.288,324.776 1186.624,331.746 C1170.214,335.772 
                                1151.193,327.323 1145.628,318.967 C1139.218,314.672 1132.439,295.758 1134.499,281.499 C1134.499,229.833 
                                1134.499,178.166 1134.499,125.499 C1134.499,99.833 1134.499,74.166 1133.613,48.156 C1137.521,17.64 1145.408,6.580 
                                1172.184,0.894 C1173.499,0.499 1173.499,0.499 1172.985,0.390 C1192.44,0.530 1204.950,7.732 1210.929,16.916 C1217.943,24.24
                                1222.294,44.36 1220.499,58.499 C1220.499,116.833 1220.499,175.166 1220.674,234.499 ZM1057.903,377.710 C1046.527,415.594 
                                1036.437,427.790 1020.240,445.715 C1003.281,459.518 993.956,468.71 961.475,478.852 C913.269,490.845 864.678,490.202 
                                816.480,468.519 C792.603,456.63 773.677,438.655 761.44,415.398 C748.221,393.124 741.154,361.931 740.281,335.499 C738.496,294.499 
                                740.110,253.500 739.331,211.500 C740.350,191.166 737.846,170.833 741.12,149.61 C749.172,129.219 754.279,123.621 777.672,117.359 
                                C778.499,117.499 778.499,117.499 777.819,117.360 C800.383,116.912 812.813,126.482 819.33,136.935 C829.374,151.694 824.129,172.575 
                                825.499,190.499 C825.499,225.833 825.499,261.166 825.560,297.500 C825.207,313.833 825.547,330.166 828.378,347.184 C831.626,364.189 
                                838.989,379.686 845.521,386.366 C854.567,393.692 860.162,399.596 879.499,404.237 C894.166,407.11 908.833,407.623 924.619,404.883 
                                C955.889,394.276 961.951,386.448 973.732,355.500 C980.661,328.166 976.2,300.833 977.499,272.500 C977.499,246.833 977.499,221.166 
                                977.786,193.934 C976.646,173.506 976.42,140.80 991.247,129.922 C997.336,117.898 1032.132,111.595 1047.211,125.664 C1052.663,131.302 
                                1057.737,134.812 1062.450,145.499 C1064.921,186.499 1062.609,227.499 1063.740,269.500 C1062.66,305.499 1067.207,341.500 1057.903,377.710 
                                ZM634.500,472.814 C580.166,492.528 525.833,490.101 470.328,472.521 C441.618,460.769 431.984,453.423 415.615,438.389 C409.889,430.348 403.806,425.638 
                                400.400,408.987 C399.828,392.675 407.941,384.721 414.637,377.697 C419.238,372.78 435.507,359.700 453.910,366.633 C474.286,378.269 483.939,394.703 
                                510.499,404.890 C536.833,414.339 563.166,415.24 590.679,408.206 C602.196,403.270 606.192,399.891 611.543,391.268 C615.401,382.120 614.65,367.569 
                                607.705,361.419 C601.38,352.784 579.635,344.877 557.499,338.216 C539.833,333.37 522.166,328.663 503.215,322.544 C489.721,318.895 469.568,311.116 
                                460.717,305.875 C442.327,293.578 430.424,285.793 420.134,257.499 C414.761,237.166 414.453,216.833 419.340,196.4 C424.126,177.756 430.243,167.138 
                                436.814,158.814 C446.721,145.721 459.874,135.874 476.499,127.602 C499.833,116.542 523.166,112.945 546.500,111.404 C571.833,111.691 597.166,114.41 
                                623.874,123.407 C647.487,133.78 657.109,139.590 670.651,153.184 C676.746,159.275 680.675,162.917 685.41,176.125 C683.304,201.899 670.836,208.745 
                                658.80,218.719 C649.442,223.815 638.783,223.961 628.721,219.278 C616.612,211.720 606.487,202.179 592.499,195.789 C574.166,187.4 555.833,183.949 
                                537.51,184.828 C517.133,186.811 503.655,193.237 498.711,205.906 C493.702,224.997 504.997,237.280 513.478,241.159 C541.828,255.778 574.673,258.611 
                                604.657,268.216 C636.448,278.170 653.332,287.159 667.846,299.583 C679.406,309.758 689.711,322.577 695.758,351.500 C697.40,371.833 698.96,392.166 
                                690.491,414.506 C678.178,445.145 662.70,458.222 634.500,472.814 ZM294.387,447.387 C285.687,454.687 275.753,460.753 265.531,466.409 C239.581,480.202 
                                205.401,487.697 175.338,486.466 C149.872,486.27 121.711,479.465 97.542,467.457 C66.788,451.544 43.135,428.531 25.694,397.642 C20.409,390.594 11.780,368.901
                                7.370,351.500 C0.339,320.833 -1.385,290.166 4.655,258.82 C7.476,238.149 19.411,207.984 27.255,196.255 C39.876,174.209 56.794,156.460 78.614,141.156 C91.835,129.908 
                                134.165,111.279 167.439,111.469 C168.500,110.500 168.500,110.500 168.500,110.588 C195.500,109.621 222.500,112.872 251.289,123.933 C273.406,133.346 284.882,141.758 
                                300.159,154.840 C312.697,166.302 324.104,178.895 333.349,195.251 C340.184,205.33 352.577,233.904 356.243,255.500 C364.315,297.833 361.183,340.166 342.860,383.485 
                                C331.108,409.643 315.78,429.734 294.387,447.387 ZM263.670,237.41 C251.568,218.163 241.283,206.818 215.324,195.992 C198.500,189.917 183.499,190.220 168.500,190.586 
                                C168.500,190.499 168.500,190.499 168.413,190.742 C132.252,196.500 120.633,209.522 105.762,224.766 C94.486,236.657 79.881,273.823 82.754,301.334 C82.235,320.203 
                                88.434,344.63 96.860,357.934 C106.31,374.635 118.945,387.388 135.773,396.226 C149.396,402.960 165.313,405.826 179.395,406.371 C195.707,406.327 216.445,401.878 
                                228.168,394.450 C240.772,387.772 250.232,378.232 258.632,367.632 C266.797,358.433 277.414,330.912 278.436,310.623 C281.184,286.235 274.879,256.501 263.670,237.41 Z" />
</svg>
